<svg width="31" height="28" viewBox="0 0 22 18" fill="none" xmlns="http://www.w3.org/2000/svg">
<path d="M21.2858 6.1301V15.2449C21.2858 15.75 21.1059 16.1824 20.7462 16.5421C20.3866 16.9018 19.9542 17.0816 19.449 17.0816H2.55109C2.04599 17.0816 1.61359 16.9018 1.2539 16.5421C0.894202 16.1824 0.714355 15.75 0.714355 15.2449V6.1301C1.05109 6.5051 1.43757 6.83801 1.87379 7.12883C4.64421 9.01148 6.54599 10.3316 7.57914 11.0893C8.01537 11.4107 8.36933 11.6613 8.64101 11.8412C8.9127 12.021 9.27431 12.2047 9.72584 12.3922C10.1774 12.5797 10.5983 12.6735 10.9886 12.6735H11.0116C11.4019 12.6735 11.8228 12.5797 12.2743 12.3922C12.7258 12.2047 13.0874 12.021 13.3591 11.8412C13.6308 11.6613 13.9848 11.4107 14.421 11.0893C15.722 10.1479 17.6276 8.8278 20.1378 7.12883C20.574 6.83036 20.9567 6.49745 21.2858 6.1301ZM21.2858 2.7551C21.2858 3.3597 21.0983 3.9375 20.7233 4.48852C20.3483 5.03954 19.8814 5.5102 19.3228 5.90051C16.4452 7.89796 14.6544 9.14158 13.9503 9.63138C13.8737 9.68498 13.7111 9.80169 13.4624 9.9815C13.2137 10.1614 13.0071 10.3068 12.8426 10.4177C12.678 10.5287 12.479 10.6531 12.2456 10.7908C12.0122 10.9286 11.7922 11.0319 11.5855 11.1008C11.3789 11.1697 11.1876 11.2041 11.0116 11.2041H10.9886C10.8126 11.2041 10.6212 11.1697 10.4146 11.1008C10.208 11.0318 9.98796 10.9285 9.75454 10.7908C9.52112 10.6531 9.32214 10.5287 9.15759 10.4177C8.99305 10.3067 8.78642 10.1613 8.5377 9.9815C8.28897 9.80165 8.12634 9.68494 8.04982 9.63138C7.35338 9.14158 6.35083 8.44324 5.04216 7.53635C3.73348 6.62946 2.94905 6.08418 2.68885 5.90051C2.21436 5.57908 1.76665 5.13711 1.34573 4.57461C0.924815 4.01211 0.714355 3.48979 0.714355 3.00765C0.714355 2.41071 0.873157 1.91326 1.19076 1.5153C1.50836 1.11734 1.96181 0.918365 2.55109 0.918365H19.449C19.9465 0.918365 20.377 1.09821 20.7405 1.4579C21.104 1.81759 21.2858 2.24999 21.2858 2.7551Z" fill="white"/>
</svg>
