<svg width="28" height="28" viewBox="0 0 21 20" fill="none" xmlns="http://www.w3.org/2000/svg">
<path fill-rule="evenodd" clip-rule="evenodd" d="M10.1065 0C4.52555 0 0 4.59041 0 10.2531C0 14.7833 2.89581 18.6266 6.91145 19.9824C7.41652 20.0773 7.602 19.76 7.602 19.4891C7.602 19.2447 7.59256 18.4369 7.58828 17.5802C4.77657 18.2004 4.18329 16.3704 4.18329 16.3704C3.72356 15.1853 3.06115 14.8703 3.06115 14.8703C2.14423 14.2339 3.13027 14.2469 3.13027 14.2469C4.14516 14.3193 4.67955 15.3035 4.67955 15.3035C5.58094 16.871 7.04382 16.4178 7.62054 16.1559C7.71122 15.4931 7.97319 15.0409 8.26218 14.7849C6.01744 14.5255 3.65761 13.6464 3.65761 9.71767C3.65761 8.59831 4.05242 7.6836 4.69897 6.96559C4.59403 6.7073 4.24812 5.6645 4.79686 4.25219C4.79686 4.25219 5.64554 3.97662 7.57687 5.3032C8.38298 5.07595 9.24758 4.96209 10.1065 4.95823C10.9654 4.96209 11.8306 5.07595 12.6383 5.3032C14.5673 3.97662 15.4148 4.25219 15.4148 4.25219C15.9649 5.6645 15.6189 6.7073 15.5139 6.96559C16.1619 7.6836 16.554 8.59823 16.554 9.71767C16.554 13.6557 14.1897 14.5229 11.9393 14.7767C12.3018 15.0948 12.6248 15.7189 12.6248 16.6754C12.6248 18.0472 12.613 19.1514 12.613 19.4891C12.613 19.762 12.7949 20.0817 13.3073 19.981C17.3207 18.6237 20.2129 14.7818 20.2129 10.2531C20.2129 4.59041 15.688 0 10.1065 0Z" fill="white"/>
<path d="M3.78974 14.603C3.7677 14.6541 3.68917 14.6694 3.61779 14.6344C3.545 14.6008 3.50408 14.5311 3.52769 14.4798C3.54933 14.4272 3.62787 14.4125 3.7005 14.4479C3.77345 14.4813 3.815 14.5517 3.78974 14.603ZM4.2833 15.0545C4.23545 15.1 4.14189 15.0788 4.07838 15.0069C4.01275 14.9352 4.00048 14.8394 4.04903 14.7931C4.09837 14.7477 4.1891 14.7689 4.25489 14.8407C4.32052 14.9133 4.33335 15.0085 4.2833 15.0545ZM4.62192 15.6321C4.56038 15.6759 4.45981 15.6348 4.39772 15.5433C4.33626 15.4519 4.33626 15.3422 4.39906 15.2983C4.46138 15.2543 4.56038 15.2938 4.62333 15.3846C4.68471 15.4776 4.68479 15.5872 4.62192 15.6321ZM5.19449 16.3011C5.13948 16.3633 5.02238 16.3466 4.93661 16.2618C4.84894 16.1788 4.82447 16.0611 4.87963 15.9989C4.93527 15.9366 5.05307 15.9541 5.13948 16.0383C5.22659 16.1211 5.25311 16.2397 5.19449 16.3011ZM5.93451 16.527C5.91036 16.6075 5.79751 16.6442 5.68388 16.61C5.5704 16.5747 5.49612 16.4803 5.51902 16.3989C5.54262 16.3178 5.65594 16.2797 5.77044 16.3163C5.88376 16.3514 5.95812 16.4451 5.93451 16.527ZM6.77684 16.6228C6.77968 16.7077 6.68328 16.778 6.56398 16.7795C6.44397 16.7822 6.34694 16.7135 6.34569 16.6301C6.34569 16.5444 6.43988 16.4747 6.55981 16.4727C6.67911 16.4703 6.77684 16.5385 6.77684 16.6228ZM7.60422 16.5903C7.61855 16.673 7.5356 16.7581 7.41717 16.7807C7.3007 16.8024 7.19289 16.7514 7.17802 16.6693C7.16354 16.5845 7.24806 16.4995 7.36429 16.4775C7.48296 16.4564 7.58911 16.5061 7.60422 16.5903Z" fill="white"/>
</svg>
