<svg width="26" height="26" viewBox="0 0 22 21" fill="none" xmlns="http://www.w3.org/2000/svg">
<path d="M5.00583 6.83781V21H0.28238V6.83781H5.00583ZM5.31389 2.45854C5.31389 3.81585 4.28705 4.89146 2.64411 4.89146H2.61844C1.02684 4.89146 0 3.81585 0 2.45854C0 1.07561 1.05251 0 2.66978 0C4.28705 0 5.28822 1.07561 5.31389 2.45854ZM22 12.8817V21H17.3022V13.4195C17.3022 11.5244 16.6091 10.2183 14.8891 10.2183C13.6056 10.2183 12.8098 11.089 12.4761 11.9341C12.3734 12.2415 12.3221 12.6512 12.3221 13.0866V21H7.5986C7.67561 8.16951 7.5986 6.83781 7.5986 6.83781H12.3221V8.88659H12.2964C12.9125 7.91341 14.0163 6.50488 16.5834 6.50488C19.6896 6.50488 22 8.52805 22 12.8817Z" fill="white"/>
</svg>
