<svg width="29" height="26" viewBox="0 0 27 23" fill="none" xmlns="http://www.w3.org/2000/svg">
<path d="M8.49097 23C18.6797 23 24.2524 14.1503 24.2524 6.47606C24.2524 6.22463 24.2524 5.9744 24.2363 5.72418C25.3203 4.90244 26.2562 3.88494 27 2.71931C25.989 3.18898 24.9165 3.49699 23.8183 3.63306C24.9747 2.9073 25.8402 1.76579 26.2537 0.42098C25.1663 1.09742 23.9767 1.57413 22.7361 1.83054C21.9009 0.899499 20.7963 0.282997 19.5932 0.0764303C18.3901 -0.130136 17.1556 0.0847484 16.0807 0.687833C15.0058 1.29092 14.1505 2.24858 13.6471 3.41263C13.1437 4.57667 13.0203 5.88221 13.2959 7.12722C11.0935 7.01145 8.93897 6.41142 6.97212 5.36606C5.00527 4.32071 3.2701 2.85341 1.87924 1.05942C1.17086 2.33789 0.953886 3.85134 1.27249 5.29164C1.5911 6.73193 2.42134 7.99078 3.59416 8.81187C2.71263 8.78447 1.85032 8.53516 1.08 8.08498V8.15851C1.08034 9.49935 1.52307 10.7988 2.3331 11.8364C3.14313 12.8741 4.27059 13.586 5.52424 13.8515C4.70869 14.0846 3.85302 14.1187 3.02295 13.9511C3.37692 15.1051 4.06607 16.1142 4.99401 16.8373C5.92195 17.5604 7.04228 17.9614 8.1983 17.9842C6.23673 19.6004 3.81355 20.4778 1.31868 20.4751C0.877933 20.4742 0.437618 20.4462 0 20.3913C2.53329 22.0956 5.48092 22.9997 8.49097 22.9955" fill="white"/>
</svg>
